<svg width="243" height="88" viewBox="0 0 243 88" fill="none" xmlns="http://www.w3.org/2000/svg">
<path d="M210.457 54.5151C212.318 55.5261 214.432 56 216.767 56C219.102 56 221.184 55.5261 223.046 54.5151C224.907 53.5357 226.359 52.1772 227.431 50.408C228.504 48.6703 229.04 46.7115 229.04 44.5C229.04 42.3201 228.504 40.3613 227.431 38.592C226.359 36.8544 224.907 35.4959 223.046 34.4849C221.184 33.5055 219.102 33 216.767 33C214.432 33 212.318 33.5055 210.457 34.4849C208.595 35.4959 207.144 36.8544 206.071 38.592C204.998 40.3613 204.493 42.3201 204.493 44.5C204.493 46.7115 204.998 48.6703 206.071 50.408C207.144 52.1772 208.595 53.5357 210.457 54.5151V54.5151ZM219.796 50.0288C218.881 50.5659 217.871 50.8187 216.767 50.8187C215.631 50.8187 214.621 50.5659 213.738 50.0288C212.823 49.5234 212.097 48.7651 211.592 47.8173C211.056 46.8695 210.804 45.7637 210.804 44.5C210.804 43.2679 211.056 42.1621 211.592 41.2143C212.097 40.2665 212.823 39.5082 213.738 38.9712C214.621 38.4657 215.631 38.1813 216.767 38.1813C217.871 38.1813 218.881 38.4657 219.796 38.9712C220.679 39.5082 221.405 40.2665 221.941 41.2143C222.446 42.1621 222.73 43.2679 222.73 44.5C222.73 45.7637 222.446 46.8695 221.941 47.8173C221.405 48.7651 220.679 49.5234 219.796 50.0288V50.0288Z" fill="#59B2F2"/>
<path d="M194.907 33.4423V55.5576H201.154V33.4423H194.907Z" fill="#59B2F2"/>
<path d="M190.074 38.6552C189.033 37.0123 187.581 35.717 185.72 34.8008C183.827 33.9162 181.681 33.4423 179.283 33.4423H168.84V38.434H179.031C180.924 38.434 182.438 38.9711 183.574 40.0453C184.71 41.1511 185.31 42.6359 185.31 44.5C185.31 46.3956 184.71 47.8804 183.574 48.9546C182.438 50.0288 180.924 50.5659 179.031 50.5659H175.087V44.6895H168.84V55.5576H179.283C181.681 55.5576 183.827 55.1153 185.72 54.1991C187.581 53.3145 189.033 52.0192 190.074 50.3447C191.084 48.7019 191.62 46.7431 191.62 44.5C191.62 42.2884 191.084 40.3296 190.074 38.6552Z" fill="#59B2F2"/>
<path d="M146.591 53.3145C148.421 55.1153 150.977 56 154.258 56C157.539 56 160.064 55.1153 161.894 53.3145C163.724 51.5453 164.638 48.9862 164.638 45.7005V33.4423H158.486V45.5109C158.486 49.0494 157.098 50.8186 154.321 50.8186C151.513 50.8186 150.125 49.0494 150.125 45.5109V33.4423H143.878V45.7005C143.878 48.9862 144.761 51.5453 146.591 53.3145V53.3145Z" fill="#59B2F2"/>
<path d="M129.11 38.4024V55.5576H135.357V38.4024H142.109V33.4423H122.327V38.4024H129.11Z" fill="#59B2F2"/>
<path d="M106.875 55.3365C108.547 55.7788 110.283 56 112.081 56C114.163 56 115.962 55.6841 117.445 55.0522C118.896 54.4203 120 53.5357 120.758 52.4615C121.483 51.3874 121.862 50.1868 121.862 48.8599C121.862 47.3434 121.452 46.1113 120.632 45.2266C119.811 44.342 118.865 43.6786 117.76 43.2679C116.656 42.8571 115.268 42.478 113.596 42.0989C112.081 41.783 111.008 41.4986 110.346 41.1827C109.652 40.8984 109.336 40.456 109.336 39.8558C109.336 39.2871 109.62 38.8132 110.188 38.4341C110.756 38.0549 111.639 37.8654 112.901 37.8654C114.858 37.8654 116.908 38.4341 119.022 39.5714L120.947 34.9272C119.874 34.2953 118.612 33.8214 117.224 33.5055C115.804 33.1896 114.384 33 112.933 33C110.787 33 108.989 33.3159 107.538 33.9478C106.086 34.5797 104.982 35.4643 104.256 36.5385C103.499 37.6126 103.152 38.8448 103.152 40.1717C103.152 41.7198 103.531 42.9519 104.351 43.8365C105.14 44.7527 106.086 45.4162 107.222 45.8269C108.326 46.2376 109.715 46.6168 111.387 46.9643C112.901 47.3118 113.974 47.6277 114.668 47.9437C115.362 48.2596 115.709 48.7019 115.709 49.3338C115.709 50.5343 114.511 51.1346 112.113 51.1346C110.851 51.1346 109.557 50.9451 108.263 50.5343C106.938 50.1552 105.802 49.6181 104.824 48.9547L102.773 53.5673C103.815 54.3256 105.171 54.8942 106.875 55.3365V55.3365Z" fill="#59B2F2"/>
<path d="M82.4636 54.5151C84.3252 55.5261 86.4391 56 88.7739 56C91.1087 56 93.1911 55.5261 95.0527 54.5151C96.9142 53.5357 98.3656 52.1772 99.4383 50.408C100.511 48.6703 101.047 46.7115 101.047 44.5C101.047 42.3201 100.511 40.3613 99.4383 38.592C98.3656 36.8544 96.9142 35.4959 95.0527 34.4849C93.1911 33.5055 91.1087 33 88.7739 33C86.4391 33 84.3252 33.5055 82.4636 34.4849C80.6021 35.4959 79.1507 36.8544 78.078 38.592C77.0053 40.3613 76.5004 42.3201 76.5004 44.5C76.5004 46.7115 77.0053 48.6703 78.078 50.408C79.1507 52.1772 80.6021 53.5357 82.4636 54.5151V54.5151ZM91.8029 50.0288C90.8879 50.5659 89.8782 50.8187 88.7739 50.8187C87.6381 50.8187 86.6284 50.5659 85.745 50.0288C84.83 49.5234 84.1043 48.7651 83.5995 47.8173C83.0631 46.8695 82.8107 45.7637 82.8107 44.5C82.8107 43.2679 83.0631 42.1621 83.5995 41.2143C84.1043 40.2665 84.83 39.5082 85.745 38.9712C86.6284 38.4657 87.6381 38.1813 88.7739 38.1813C89.8782 38.1813 90.8879 38.4657 91.8029 38.9712C92.6863 39.5082 93.412 40.2665 93.9484 41.2143C94.4532 42.1621 94.7371 43.2679 94.7371 44.5C94.7371 45.7637 94.4532 46.8695 93.9484 47.8173C93.412 48.7651 92.6863 49.5234 91.8029 50.0288V50.0288Z" fill="#59B2F2"/>
<path d="M68.5161 47.6277L76.9719 33.4423H70.914L65.6765 42.2252L60.4389 33.4423H53.8447L62.2689 47.5329V55.5576H68.5161V47.6277Z" fill="#59B2F2"/>
<path d="M53.4442 33.4423H49.5949L45.2724 38.4024L34.1347 51.6401V55.5576H37.8262L42.3065 50.5975L53.4442 37.3598V33.4423ZM43.5055 33.4423H34.4187V38.4024H39.0252L43.5055 33.4423ZM48.396 50.5975L44.0419 55.5576H53.9175V50.5975H48.396Z" fill="#59B2F2"/>
<path d="M31.5515 33.4423H14.0405V38.2761H31.5515V33.4423ZM31.5515 42.0041H14.0405V46.6799H31.5515V42.0041ZM14.0405 50.7239V55.5576H31.5515V50.7239H14.0405Z" fill="#59B2F2"/>
</svg>
