<svg width="243" height="88" viewBox="0 0 243 88" fill="none" xmlns="http://www.w3.org/2000/svg">
<path d="M210.416 54.5151C212.278 55.5261 214.392 56 216.726 56C219.061 56 221.144 55.5261 223.005 54.5151C224.867 53.5357 226.318 52.1772 227.391 50.408C228.464 48.6703 229 46.7115 229 44.5C229 42.3201 228.464 40.3613 227.391 38.592C226.318 36.8544 224.867 35.4959 223.005 34.4849C221.144 33.5055 219.061 33 216.726 33C214.392 33 212.278 33.5055 210.416 34.4849C208.555 35.4959 207.103 36.8544 206.03 38.592C204.958 40.3613 204.453 42.3201 204.453 44.5C204.453 46.7115 204.958 48.6703 206.03 50.408C207.103 52.1772 208.555 53.5357 210.416 54.5151V54.5151ZM219.755 50.0288C218.84 50.5659 217.831 50.8187 216.726 50.8187C215.591 50.8187 214.581 50.5659 213.697 50.0288C212.782 49.5234 212.057 48.7651 211.552 47.8173C211.016 46.8695 210.763 45.7637 210.763 44.5C210.763 43.2679 211.016 42.1621 211.552 41.2143C212.057 40.2665 212.782 39.5082 213.697 38.9712C214.581 38.4657 215.591 38.1813 216.726 38.1813C217.831 38.1813 218.84 38.4657 219.755 38.9712C220.639 39.5082 221.364 40.2665 221.901 41.2143C222.406 42.1621 222.69 43.2679 222.69 44.5C222.69 45.7637 222.406 46.8695 221.901 47.8173C221.364 48.7651 220.639 49.5234 219.755 50.0288V50.0288Z" fill="white"/>
<path d="M194.866 33.4423V55.5576H201.113V33.4423H194.866Z" fill="white"/>
<path d="M190.033 38.6552C188.992 37.0123 187.541 35.717 185.679 34.8008C183.786 33.9162 181.641 33.4423 179.243 33.4423H168.799V38.434H178.99C180.884 38.434 182.398 38.9711 183.534 40.0453C184.67 41.1511 185.269 42.6359 185.269 44.5C185.269 46.3956 184.67 47.8804 183.534 48.9546C182.398 50.0288 180.884 50.5659 178.99 50.5659H175.047V44.6895H168.799V55.5576H179.243C181.641 55.5576 183.786 55.1153 185.679 54.1991C187.541 53.3145 188.992 52.0192 190.033 50.3447C191.043 48.7019 191.58 46.7431 191.58 44.5C191.58 42.2884 191.043 40.3296 190.033 38.6552Z" fill="white"/>
<path d="M146.551 53.3145C148.381 55.1153 150.936 56 154.218 56C157.499 56 160.023 55.1153 161.853 53.3145C163.683 51.5453 164.598 48.9862 164.598 45.7005V33.4423H158.445V45.5109C158.445 49.0494 157.057 50.8186 154.281 50.8186C151.473 50.8186 150.084 49.0494 150.084 45.5109V33.4423H143.837V45.7005C143.837 48.9862 144.721 51.5453 146.551 53.3145V53.3145Z" fill="white"/>
<path d="M129.07 38.4024V55.5576H135.317V38.4024H142.069V33.4423H122.286V38.4024H129.07Z" fill="white"/>
<path d="M106.835 55.3365C108.507 55.7788 110.242 56 112.041 56C114.123 56 115.921 55.6841 117.404 55.0522C118.856 54.4203 119.96 53.5357 120.717 52.4615C121.443 51.3874 121.822 50.1868 121.822 48.8599C121.822 47.3434 121.411 46.1113 120.591 45.2266C119.771 44.342 118.824 43.6786 117.72 43.2679C116.616 42.8571 115.227 42.478 113.555 42.0989C112.041 41.783 110.968 41.4986 110.305 41.1827C109.611 40.8984 109.296 40.456 109.296 39.8558C109.296 39.2871 109.58 38.8132 110.148 38.4341C110.715 38.0549 111.599 37.8654 112.861 37.8654C114.817 37.8654 116.868 38.4341 118.982 39.5714L120.907 34.9272C119.834 34.2953 118.572 33.8214 117.183 33.5055C115.764 33.1896 114.344 33 112.892 33C110.747 33 108.949 33.3159 107.497 33.9478C106.046 34.5797 104.942 35.4643 104.216 36.5385C103.459 37.6126 103.112 38.8448 103.112 40.1717C103.112 41.7198 103.49 42.9519 104.31 43.8365C105.099 44.7527 106.046 45.4162 107.182 45.8269C108.286 46.2376 109.674 46.6168 111.346 46.9643C112.861 47.3118 113.934 47.6277 114.628 47.9437C115.322 48.2596 115.669 48.7019 115.669 49.3338C115.669 50.5343 114.47 51.1346 112.072 51.1346C110.81 51.1346 109.516 50.9451 108.223 50.5343C106.898 50.1552 105.762 49.6181 104.784 48.9547L102.733 53.5673C103.774 54.3256 105.131 54.8942 106.835 55.3365V55.3365Z" fill="white"/>
<path d="M82.4232 54.5151C84.2847 55.5261 86.3987 56 88.7335 56C91.0683 56 93.1507 55.5261 95.0122 54.5151C96.8737 53.5357 98.3251 52.1772 99.3978 50.408C100.471 48.6703 101.007 46.7115 101.007 44.5C101.007 42.3201 100.471 40.3613 99.3978 38.592C98.3251 36.8544 96.8737 35.4959 95.0122 34.4849C93.1507 33.5055 91.0683 33 88.7335 33C86.3987 33 84.2847 33.5055 82.4232 34.4849C80.5616 35.4959 79.1103 36.8544 78.0375 38.592C76.9648 40.3613 76.46 42.3201 76.46 44.5C76.46 46.7115 76.9648 48.6703 78.0375 50.408C79.1103 52.1772 80.5616 53.5357 82.4232 54.5151V54.5151ZM91.7624 50.0288C90.8474 50.5659 89.8378 50.8187 88.7335 50.8187C87.5976 50.8187 86.588 50.5659 85.7045 50.0288C84.7895 49.5234 84.0639 48.7651 83.559 47.8173C83.0227 46.8695 82.7702 45.7637 82.7702 44.5C82.7702 43.2679 83.0227 42.1621 83.559 41.2143C84.0639 40.2665 84.7895 39.5082 85.7045 38.9712C86.588 38.4657 87.5976 38.1813 88.7335 38.1813C89.8378 38.1813 90.8474 38.4657 91.7624 38.9712C92.6458 39.5082 93.3715 40.2665 93.9079 41.2143C94.4127 42.1621 94.6967 43.2679 94.6967 44.5C94.6967 45.7637 94.4127 46.8695 93.9079 47.8173C93.3715 48.7651 92.6458 49.5234 91.7624 50.0288V50.0288Z" fill="white"/>
<path d="M68.4756 47.6277L76.9314 33.4423H70.8735L65.636 42.2252L60.3985 33.4423H53.8042L62.2284 47.5329V55.5576H68.4756V47.6277Z" fill="white"/>
<path d="M53.4037 33.4423H49.5545L45.2319 38.4024L34.0942 51.6401V55.5576H37.7858L42.2661 50.5975L53.4037 37.3598V33.4423ZM43.465 33.4423H34.3782V38.4024H38.9847L43.465 33.4423ZM48.3555 50.5975L44.0014 55.5576H53.877V50.5975H48.3555Z" fill="white"/>
<path d="M31.5111 33.4423H14V38.2761H31.5111V33.4423ZM31.5111 42.0041H14V46.6799H31.5111V42.0041ZM14 50.7239V55.5576H31.5111V50.7239H14Z" fill="white"/>
</svg>
